<svg xmlns="http://www.w3.org/2000/svg" width="26" height="33" viewBox="0 0 26 33">
  <path id="合体_8" data-name="合体 8" d="M3583,102V99.9h23.92V77.381h-6.24V71.1h-15.6V83.667H3583V69h19.76v6.286H3609V102Zm16.64-5.762v-8.9h5.2v2.1h-3.12v1.834h1.56v2.1h-1.56v2.881Zm-8.58,0v-8.9h2.08a4.453,4.453,0,0,1,0,8.9Zm2.08-2.1a2.357,2.357,0,0,0,0-4.714Zm-10.14,2.1v-8.9h2.99a3.012,3.012,0,0,1,0,6.024h-.91v2.881Zm2.08-4.976h.91a.917.917,0,0,0,0-1.834h-.91Z" transform="translate(-3583 -69)" fill="#fff"/>
</svg>
